# xmcd
#
# Track frame offsets:
# 150
# 11016
# 21210
# 32714
# 43836
# 54209
# 64651
# 76337
# 85290
# 96926
# 108012
# 117971
# 129272
# 141168
#
# Disc length: 2019 seconds
#
#
# Revision: 1
# Processed by: cddbd v1.5.2PL0 Copyright (c) Steve Scherf et al.
# Submitted via: FreeRIP 2.951 
#
DISCID=ad07e10e
DTITLE=Patsy Cline - Patsy Cline CD 2
DYEAR=1900
DGENRE=Country
TTITLE0=I Cried All the Way To The Altar
TTITLE1=Three Cigarettes In The Ashtray
TTITLE2=The Heart You Break Maybe Your Own
TTITLE3=I Can't Forget
TTITLE4=Too Many Secrets
TTITLE5=I Love You Honey
TTITLE6=I've Loved And Lost Again
TTITLE7=Try Again
TTITLE8=Let The Teardrops Fall
TTITLE9=Stop The World And Let Me Off
TTITLE10=Turn The Cards Slowly
TTITLE11=Just Out Of Reach
TTITLE12=Today, Tomorrow and Forever
TTITLE13=He Will For You What He Has Done For Me
EXTD=Brittel
EXTT0=
EXTT1=
EXTT2=
EXTT3=
EXTT4=
EXTT5=
EXTT6=
EXTT7=
EXTT8=
EXTT9=
EXTT10=
EXTT11=
EXTT12=
EXTT13=
PLAYORDER=
